<svg height='100px' width='100px'  fill="#000000" xmlns="http://www.w3.org/2000/svg" data-name="Layer 1" viewBox="0 0 64 64" x="0px" y="0px"><title>file document 3d</title><path d="M27.278,50.847l-1.74,6.084H24.086L22.37,50.859v6.072h-1.7V48h2.557l1.584,5.736L26.4,48h2.58v8.928h-1.7Z"></path><path d="M33.244,56.931H30.3V48h2.918a4.8,4.8,0,0,1,1.835.318,3.306,3.306,0,0,1,1.274.906,3.742,3.742,0,0,1,.74,1.41,6.565,6.565,0,0,1,.241,1.842,6.455,6.455,0,0,1-.252,1.89,3.511,3.511,0,0,1-.789,1.4A3.849,3.849,0,0,1,33.244,56.931Zm-.022-7.3H32.21V55.3H33.2a2.339,2.339,0,0,0,1.09-.224,1.729,1.729,0,0,0,.676-.617,2.61,2.61,0,0,0,.343-.908,6.055,6.055,0,0,0,.1-1.095,4.987,4.987,0,0,0-.138-1.241,2.481,2.481,0,0,0-.405-.877A1.916,1.916,0,0,0,33.222,49.635Z"></path><path d="M40.838,54.159l-1.356,2.772h-2.1l2.412-4.572L37.525,48h2.1l1.212,2.508L42.05,48h2.1l-2.268,4.356,2.412,4.572h-2.1Z"></path><polygon points="40.232 37.087 45.469 34.063 45.469 28.018 40.232 31.047 40.232 37.087"></polygon><polygon points="44.469 26.286 39.234 23.264 34.002 26.285 39.242 29.309 44.469 26.286"></polygon><polygon points="38.232 31.466 38.232 31.036 33 28.016 33 34.063 38.232 37.084 38.232 31.466"></polygon><polygon points="18.531 25.709 23.763 28.729 23.763 23.111 23.763 22.681 18.531 19.661 18.531 25.709"></polygon><path d="M53.84,17.73c-.02-.02-.04-.05-.06-.07a.484.484,0,0,0-.07-.08L39.42,3.29c-.02-.02-.05-.04-.07-.06s-.06-.05-.08-.07L39.12,3H14a4,4,0,0,0-4,4V57a4,4,0,0,0,4,4H50a4,4,0,0,0,4-4V17.88ZM39.71,6.41,50.59,17.29H41.71a2.006,2.006,0,0,1-2-2ZM16.531,17.354,24.766,12.6,33,17.354v7.2l6.234-3.6,8.235,4.754v9.509l-8.235,4.755L31,35.218v-7.2l-6.234,3.6-8.235-4.755ZM52,57a2.006,2.006,0,0,1-2,2H14a2.006,2.006,0,0,1-2-2V41.46H25.73l2.7,3.09a.981.981,0,0,0,.75.34H52Z"></path><polygon points="30 17.932 24.766 14.91 19.533 17.93 24.773 20.954 30 17.932"></polygon><polygon points="25.763 28.733 31 25.71 31 25.709 31 25.709 31 19.664 25.763 22.692 25.763 28.733"></polygon></svg>