<svg xmlns:xlink="http://www.w3.org/1999/xlink" width="2.067ex" height="2.676ex" style="font-size: 15px; vertical-align: -0.671ex;" viewBox="0 -863.1 889.8 1152.1" role="img" focusable="false" xmlns="http://www.w3.org/2000/svg">
<defs>
<path stroke-width="1" id="E1-MJCAL-54" d="M49 475Q34 475 34 490Q34 552 106 611T261 681Q272 683 507 683H742Q790 717 816 717Q833 717 833 708Q833 682 795 653T714 615Q691 610 588 609Q490 609 490 607L483 580Q476 554 462 496T435 392Q410 289 395 231T363 116T335 34T309 -15T279 -47T242 -64Q231 -68 218 -68Q203 -68 203 -57Q203 -52 211 -38Q224 -7 234 20T251 66T268 123T283 179T304 261T328 360Q342 415 360 488Q380 567 384 582T397 605Q400 607 401 609H302H244Q200 609 188 607T167 596Q145 572 145 541Q145 520 109 498T49 475Z"></path>
<path stroke-width="1" id="E1-MJMATHI-69" d="M184 600Q184 624 203 642T247 661Q265 661 277 649T290 619Q290 596 270 577T226 557Q211 557 198 567T184 600ZM21 287Q21 295 30 318T54 369T98 420T158 442Q197 442 223 419T250 357Q250 340 236 301T196 196T154 83Q149 61 149 51Q149 26 166 26Q175 26 185 29T208 43T235 78T260 137Q263 149 265 151T282 153Q302 153 302 143Q302 135 293 112T268 61T223 11T161 -11Q129 -11 102 10T74 74Q74 91 79 106T122 220Q160 321 166 341T173 380Q173 404 156 404H154Q124 404 99 371T61 287Q60 286 59 284T58 281T56 279T53 278T49 278T41 278H27Q21 284 21 287Z"></path>
</defs>
<g stroke="currentColor" fill="currentColor" stroke-width="0" transform="matrix(1 0 0 -1 0 0)">
 <use xlink:href="#E1-MJCAL-54" x="0" y="0"></use>
 <use transform="scale(0.707)" xlink:href="#E1-MJMATHI-69" x="771" y="-213"></use>
</g>
</svg>